<svg id="Component_5_1" data-name="Component 5 – 1" xmlns="http://www.w3.org/2000/svg" width="19.065" height="22.889" viewBox="0 0 19.065 22.889">
  <g id="Group_4" data-name="Group 4" transform="translate(6.84)">
    <g id="Group_3" data-name="Group 3">
      <path id="Path_8" data-name="Path 8" d="M82.494,2.828A3.274,3.274,0,0,0,79.285,0a3.236,3.236,0,0,0-2.619,1.354.392.392,0,0,0,.083.542.377.377,0,0,0,.533-.085,2.476,2.476,0,0,1,2-1.036,2.5,2.5,0,0,1,2.453,2.162.384.384,0,0,0,.377.333.4.4,0,0,0,.054,0A.387.387,0,0,0,82.494,2.828Z" transform="translate(-76.593)" fill="#707070"/>
    </g>
  </g>
  <g id="Group_6" data-name="Group 6" transform="translate(0.763 5.043)">
    <g id="Group_5" data-name="Group 5">
      <path id="Path_9" data-name="Path 9" d="M39.671,46.5l-1.144-1.94a.38.38,0,0,0-.327-.188H37.1a.388.388,0,0,0,0,.776h.88l.686,1.164H23.24l.686-1.164h.4a.388.388,0,0,0,0-.776h-.62a.38.38,0,0,0-.327.188L22.239,46.5a.394.394,0,0,0,0,.391.38.38,0,0,0,.332.2H39.344a.38.38,0,0,0,.332-.2A.394.394,0,0,0,39.671,46.5Z" transform="translate(-22.185 -44.372)" fill="#707070"/>
    </g>
  </g>
  <g id="Group_8" data-name="Group 8" transform="translate(10.052 2.174)">
    <g id="Group_7" data-name="Group 7">
      <path id="Path_10" data-name="Path 10" d="M111.639,20.546a.381.381,0,0,0-.237-.173l-5.2-1.237a.376.376,0,0,0-.288.048.388.388,0,0,0-.17.241l-.392,1.7a.388.388,0,0,0,.284.466.381.381,0,0,0,.458-.289l.305-1.327,4.455,1.06-.7,3.045a.388.388,0,0,0,.284.466.379.379,0,0,0,.458-.289l.787-3.423A.392.392,0,0,0,111.639,20.546Z" transform="translate(-105.343 -19.126)" fill="#707070"/>
    </g>
  </g>
  <g id="Group_10" data-name="Group 10" transform="translate(2.249 1.179)">
    <g id="Group_9" data-name="Group 9">
      <path id="Path_11" data-name="Path 11" d="M42.979,13.706l-.347-2.99a.389.389,0,0,0-.143-.259.377.377,0,0,0-.281-.081l-6.377.767a.387.387,0,0,0-.334.431l.579,4.986a.384.384,0,0,0,.378.343l.045,0a.387.387,0,0,0,.334-.431l-.535-4.6,5.62-.676.3,2.6a.381.381,0,1,0,.757-.091Z" transform="translate(-35.494 -10.374)" fill="#707070"/>
    </g>
  </g>
  <g id="Group_12" data-name="Group 12" transform="translate(5.098 3.724)">
    <g id="Group_11" data-name="Group 11">
      <path id="Path_12" data-name="Path 12" d="M68.648,36.269l-.757-3.2a.388.388,0,0,0-.172-.24.378.378,0,0,0-.288-.046l-6.143,1.5a.388.388,0,0,0-.282.468l.378,1.6a.381.381,0,0,0,.46.287.388.388,0,0,0,.282-.468l-.289-1.223,5.4-1.321.668,2.825a.383.383,0,0,0,.37.3.374.374,0,0,0,.09-.011A.388.388,0,0,0,68.648,36.269Z" transform="translate(-60.997 -32.769)" fill="#707070"/>
    </g>
  </g>
  <g id="Group_14" data-name="Group 14" transform="translate(0 6.983)">
    <g id="Group_13" data-name="Group 13">
      <path id="Path_13" data-name="Path 13" d="M33.661,61.809a.384.384,0,0,0-.381-.368H16.5a.384.384,0,0,0-.381.368l-.763,15.13a.392.392,0,0,0,.1.287.379.379,0,0,0,.276.121h18.3a.38.38,0,0,0,.277-.121.393.393,0,0,0,.1-.287ZM16.141,76.571l.724-14.354H32.917l.724,14.354Z" transform="translate(-15.359 -61.441)" fill="#707070"/>
    </g>
  </g>
  <g id="Group_16" data-name="Group 16" transform="translate(11.248 8.535)">
    <g id="Group_15" data-name="Group 15">
      <path id="Path_14" data-name="Path 14" d="M117.2,75.093a1.164,1.164,0,1,0,1.144,1.164A1.155,1.155,0,0,0,117.2,75.093Zm0,1.552a.388.388,0,1,1,.381-.388A.385.385,0,0,1,117.2,76.645Z" transform="translate(-116.052 -75.093)" fill="#707070"/>
    </g>
  </g>
  <g id="Group_18" data-name="Group 18" transform="translate(5.529 8.535)">
    <g id="Group_17" data-name="Group 17">
      <path id="Path_15" data-name="Path 15" d="M66,75.093a1.164,1.164,0,1,0,1.144,1.164A1.155,1.155,0,0,0,66,75.093Zm0,1.552a.388.388,0,1,1,.381-.388A.385.385,0,0,1,66,76.645Z" transform="translate(-64.852 -75.093)" fill="#707070"/>
    </g>
  </g>
  <g id="Group_20" data-name="Group 20" transform="translate(6.292 9.699)">
    <g id="Group_19" data-name="Group 19">
      <path id="Path_16" data-name="Path 16" d="M77.78,85.333H77.75a.385.385,0,0,0-.381.388.389.389,0,0,0,.029.15v1.984a2.479,2.479,0,1,1-4.957,0V85.721a.381.381,0,1,0-.763,0v2.134a3.242,3.242,0,1,0,6.482,0V85.721A.385.385,0,0,0,77.78,85.333Z" transform="translate(-71.679 -85.333)" fill="#707070"/>
    </g>
  </g>
</svg>
